<svg width="58" height="58" viewBox="0 0 58 58" fill="none" xmlns="http://www.w3.org/2000/svg">
<circle cx="2.62256" cy="2.74841" r="2" fill="#ABB2BF"/>
<circle cx="15.7717" cy="2.74841" r="2" fill="#ABB2BF"/>
<circle cx="28.9211" cy="2.74841" r="2" fill="#ABB2BF"/>
<circle cx="42.0703" cy="2.74841" r="2" fill="#ABB2BF"/>
<circle cx="55.2195" cy="2.74841" r="2" fill="#ABB2BF"/>
<circle cx="2.62256" cy="15.8977" r="2" fill="#ABB2BF"/>
<circle cx="15.7717" cy="15.8977" r="2" fill="#ABB2BF"/>
<circle cx="28.9211" cy="15.8977" r="2" fill="#ABB2BF"/>
<circle cx="42.0703" cy="15.8977" r="2" fill="#ABB2BF"/>
<circle cx="55.2195" cy="15.8977" r="2" fill="#ABB2BF"/>
<circle cx="2.62256" cy="29.0469" r="2" fill="#ABB2BF"/>
<circle cx="15.7717" cy="29.0469" r="2" fill="#ABB2BF"/>
<circle cx="28.9211" cy="29.0469" r="2" fill="#ABB2BF"/>
<circle cx="42.0703" cy="29.0469" r="2" fill="#ABB2BF"/>
<circle cx="55.2195" cy="29.0469" r="2" fill="#ABB2BF"/>
<circle cx="2.62256" cy="42.1962" r="2" fill="#ABB2BF"/>
<circle cx="15.7717" cy="42.1962" r="2" fill="#ABB2BF"/>
<circle cx="28.9211" cy="42.1962" r="2" fill="#ABB2BF"/>
<circle cx="42.0703" cy="42.1962" r="2" fill="#ABB2BF"/>
<circle cx="55.2195" cy="42.1962" r="2" fill="#ABB2BF"/>
<circle cx="2.62256" cy="55.3454" r="2" fill="#ABB2BF"/>
<circle cx="15.7717" cy="55.3454" r="2" fill="#ABB2BF"/>
<circle cx="28.9211" cy="55.3454" r="2" fill="#ABB2BF"/>
<circle cx="42.0703" cy="55.3454" r="2" fill="#ABB2BF"/>
<circle cx="55.2195" cy="55.3454" r="2" fill="#ABB2BF"/>
</svg>
